<svg width="141" height="67" fill="none" xmlns="http://www.w3.org/2000/svg"><path d="M75.086 20.753h-7.498v26.205h7.498V20.753z" fill="#32325D"/><path fill-rule="evenodd" clip-rule="evenodd" d="M59.553 22.97l-.477-2.216h-6.452v26.204h7.467v-17.76c1.762-2.305 4.75-1.886 5.675-1.556v-6.888c-.956-.36-4.45-1.019-6.213 2.216zM124.4 33.96c0-7.666-3.703-13.716-10.783-13.716-7.108 0-11.41 6.05-11.41 13.657 0 9.014 5.078 13.566 12.366 13.566 3.555 0 6.243-.809 8.274-1.947v-5.99c-2.031 1.019-4.361 1.648-7.318 1.648-2.897 0-5.466-1.018-5.795-4.552h14.607c0-.39.059-1.947.059-2.666zm-14.755-2.845c0-3.384 2.061-4.791 3.943-4.791 1.822 0 3.763 1.407 3.763 4.791h-7.706zM90.678 20.244c-2.928 0-4.81 1.378-5.855 2.336l-.388-1.856h-6.572v34.918l7.468-1.587.03-8.475c1.075.779 2.658 1.887 5.287 1.887 5.346 0 10.215-4.313 10.215-13.806-.03-8.685-4.958-13.417-10.185-13.417zm-1.793 20.634c-1.762 0-2.807-.629-3.524-1.407l-.03-11.11c.777-.87 1.852-1.468 3.554-1.468 2.719 0 4.6 3.054 4.6 6.977 0 4.014-1.852 7.008-4.6 7.008zM24.427 28.36c0-1.168.956-1.617 2.539-1.617 2.27 0 5.137.689 7.407 1.917v-7.038c-2.479-.988-4.928-1.378-7.407-1.378-6.064 0-10.096 3.175-10.096 8.476 0 8.265 11.35 6.947 11.35 10.511 0 1.378-1.195 1.827-2.867 1.827-2.48 0-5.646-1.018-8.155-2.396v7.128a20.66 20.66 0 008.155 1.707c6.212 0 10.484-3.085 10.484-8.446-.03-8.924-11.41-7.337-11.41-10.69zm20.191-14.105l-7.288 1.557L37.3 39.8c0 4.432 3.316 7.697 7.737 7.697 2.449 0 4.241-.45 5.227-.989V40.43c-.956.39-5.675 1.767-5.675-2.665V27.132h5.675v-6.379h-5.675l.03-6.498zm22.97 4.222l7.498-1.617v-6.079l-7.498 1.587v6.11z" fill="#32325D"/></svg>